# xmcd
#
# Track frame offsets:
#	150
#	12920
#	27751
#	42528
#	57140
#	72265
#	86923
#	100580
#	117106
#	130480
#
# Disc length: 1969 seconds
#
# Revision: 1
# Processed by: cddbd v1.5.2PL0 Copyright (c) Steve Scherf et al.
# Submitted via: audiograbber 1.83.01
#
DISCID=8107af0a
DTITLE=Skidipops - Kakkonen
DYEAR=2005
DGENRE=Pop
TTITLE0=Axel F.
TTITLE1=Mitä Sä Haluut?
TTITLE2=Schnappi
TTITLE3=Oo Siellä Jossain Mun
TTITLE4=Taivas Lyö Tulta
TTITLE5=Loimaa MC
TTITLE6=Ihmeitä Riittää
TTITLE7=Baila Baila
TTITLE8=Tyhjä Huone
TTITLE9=Minimusabox
EXTD=TR.
EXTT0=
EXTT1=
EXTT2=
EXTT3=
EXTT4=
EXTT5=
EXTT6=
EXTT7=
EXTT8=
EXTT9=
PLAYORDER=
